name Walk6.mot
datacolumns 19
datarows 10
range 1.28000000 1.32500000
endheader

                time	   L_ground_force_vx	   L_ground_force_vy	   L_ground_force_vz	   L_ground_force_px	   L_ground_force_py	   L_ground_force_pz	   R_ground_force_vx	   R_ground_force_vy	   R_ground_force_vz	   R_ground_force_px	   R_ground_force_py	   R_ground_force_pz	   L_ground_torque_x	   L_ground_torque_y	   L_ground_torque_z	   R_ground_torque_x	   R_ground_torque_y	   R_ground_torque_z	
          1.28000000	          3.07969638	         42.16582455	         -0.67343096	          0.00208961	          0.00000000	          0.00144011	         -0.00000000	          0.00000000	          0.00000000	          0.00000000	          0.00000000	          0.00000000	          0.00000000	         -0.07174552	          0.00000000	          0.00000000	         -0.00000000	          0.00000000	
          1.28500000	          4.14968449	         70.87166045	         -0.90091579	         -0.10974506	          0.00000000	         -0.00940893	         -0.00000000	          0.00000000	          0.00000000	          0.00000000	          0.00000000	          0.00000000	          0.00000000	         -0.09854091	          0.00000000	          0.00000000	         -0.00000000	          0.00000000	
          1.29000000	          3.97161819	        102.03011194	         -1.36516908	         -0.21284876	          0.00000000	         -0.01927357	         -0.00000000	          0.00000000	          0.00000000	          0.00000000	          0.00000000	          0.00000000	          0.00000000	         -0.11797807	          0.00000000	          0.00000000	         -0.00000000	          0.00000000	
          1.29500000	          2.17072075	        134.31384622	         -2.08961396	         -0.30203889	          0.00000000	         -0.02765781	         -0.00000000	          0.00000000	          0.00000000	          0.00000000	          0.00000000	          0.00000000	          0.00000000	         -0.12571702	          0.00000000	          0.00000000	         -0.00000000	          0.00000000	
          1.30000000	         -1.42227525	        166.56706312	         -3.03388927	         -0.37509432	          0.00000000	         -0.03438213	         -0.00000000	          0.00000000	          0.00000000	          0.00000000	          0.00000000	          0.00000000	          0.00000000	         -0.11790052	          0.00000000	          0.00000000	         -0.00000000	          0.00000000	
          1.30500000	         -6.66572739	        198.14142663	         -4.07966808	         -0.43187818	          0.00000000	         -0.03948551	         -0.00000000	          0.00000000	          0.00000000	          0.00000000	          0.00000000	          0.00000000	          0.00000000	         -0.09246631	          0.00000000	          0.00000000	         -0.00000000	          0.00000000	
          1.31000000	        -13.13285453	        228.73855657	         -5.06856174	         -0.47360888	          0.00000000	         -0.04314554	         -0.00000000	          0.00000000	          0.00000000	          0.00000000	          0.00000000	          0.00000000	          0.00000000	         -0.04980790	          0.00000000	          0.00000000	          0.00000000	          0.00000000	
          1.31500000	        -20.20278616	        258.16095354	         -5.84876237	         -0.50227734	          0.00000000	         -0.04560767	         -0.00000000	          0.00000000	         -0.00000000	         -0.00000000	          0.00000000	         -0.00000000	          0.00000000	          0.00645280	          0.00000000	          0.00000000	          0.00000000	          0.00000000	
          1.32000000	        -27.16504361	        286.24127461	         -6.30291068	         -0.52020554	          0.00000000	         -0.04713372	         -0.00000000	         -0.00000000	         -0.00000000	         -0.00000000	          0.00000000	         -0.00000000	          0.00000000	          0.06926457	          0.00000000	          0.00000000	          0.00000000	          0.00000000	
          1.32500000	        -33.36496772	        312.88650686	         -6.35578533	         -0.52973108	          0.00000000	         -0.04797123	         -0.00000000	         -0.00000000	         -0.00000000	         -0.00000000	          0.00000000	         -0.00000000	          0.00000000	          0.12904317	          0.00000000	          0.00000000	          0.00000000	          0.00000000	
